<?xml version="1.0" encoding="UTF-8" standalone="no"?>
<svg
   viewBox="0 0 106.03 147.291"
   version="1.1"
   id="svg2475"
   width="106.03"
   height="147.291"
   xmlns="http://www.w3.org/2000/svg">
  <defs
     id="defs2479" />
  <path
     fill="#fa005a"
     d="M 101.72003,71.930519 30.540031,0.77051876 c -0.367,-0.367 -0.835,-0.618 -1.344,-0.72 -0.51,-0.101 -1.038,-0.0499999951 -1.518,0.148 -0.48,0.198 -0.891,0.533 -1.181,0.96400004 -0.29,0.431 -0.445,0.939 -0.447,1.458 V 62.460519 l -21.5599996,-21.54 c -0.368,-0.368 -0.837,-0.618 -1.347,-0.72 -0.51,-0.102 -1.039,-0.05 -1.52,0.15 -0.48,0.199 -0.89099998,0.536 -1.17999998,0.968 -0.289,0.433 -0.443000003517,0.942 -0.443000003517,1.462 v 61.790001 c -0.0039999965,1.935 0.374000003517,3.852 1.113999983517,5.641 0.739,1.788 1.826,3.412 3.196,4.779 l 28.0499996,28 c 2.763,2.75 6.502,4.295 10.4,4.3 h 20.53 c 3.896,-0.002 7.632,-1.548 10.39,-4.3 l 28.049999,-28 c 1.365,-1.364 2.448,-2.983 3.186,-4.766 0.738,-1.783 1.116,-3.694 1.114,-5.624 V 82.330519 c 0.002,-1.932 -0.378,-3.845 -1.118,-5.63 -0.739,-1.785 -1.824,-3.406 -3.192,-4.77 z"
     id="path2469" />
  <path
     fill="#ffc500"
     d="m 80.010031,97.990519 c -0.003,1.166 -0.467,2.284001 -1.29,3.110001 l -22.6,22.68 c -0.409,0.413 -0.896,0.74 -1.432,0.964 -0.537,0.223 -1.112,0.339 -1.693,0.339 -0.581,0 -1.157,-0.116 -1.693,-0.339 -0.536,-0.224 -1.023,-0.551 -1.432,-0.964 l -22.55,-22.71 c -0.82,-0.817 -1.287,-1.923001 -1.3,-3.080001 v -8.66 c 0.001,-0.58 0.116,-1.154 0.339,-1.69 0.223,-0.535 0.55,-1.021 0.961,-1.43 l 8.12,-8.12 c 0.828,-0.826 1.95,-1.29 3.12,-1.29 1.17,0 2.291,0.464 3.12,1.29 l 11.35,11.36 11.33,-11.36 c 0.828,-0.826 1.95,-1.29 3.12,-1.29 1.17,0 2.291,0.464 3.12,1.29 l 8.11,8.12 c 0.411,0.409 0.738,0.895 0.961,1.43 0.223,0.536 0.338,1.11 0.339,1.69 z"
     id="path2471" />
  <style
     data-source="invert"
     class="dblt-ykjmwcnxmi" />
</svg>
